<?xml version="1.0" encoding="UTF-8"?>
<svg version="1.1" xmlns="http://www.w3.org/2000/svg" width="404" height="407">
<path d="M0 0 C23.90096968 14.4408656 40.20860163 37.16108453 47.02294922 64.14453125 C47.36132812 65.48257813 47.36132812 65.48257813 47.70654297 66.84765625 C51.87684385 86.98014328 49.34313217 108.48095147 41.02294922 127.14453125 C40.53052734 128.27503906 40.03810547 129.40554687 39.53076172 130.5703125 C27.89561319 155.59423242 6.12799547 173.72356125 -19.42236328 183.45703125 C-44.81651062 191.77896869 -72.88857641 189.94700687 -96.87304688 178.21728516 C-104.94040804 174.06853753 -112.09767517 169.04291286 -118.97705078 163.14453125 C-119.89357422 162.42716797 -119.89357422 162.42716797 -120.82861328 161.6953125 C-138.96639447 147.2430622 -150.35481331 122.9727014 -152.97705078 100.14453125 C-155.1316901 70.19689424 -148.57363306 43.88127066 -129.01611328 20.47265625 C-128.34322266 19.704375 -127.67033203 18.93609375 -126.97705078 18.14453125 C-126.32478516 17.396875 -125.67251953 16.64921875 -125.00048828 15.87890625 C-112.75461532 2.76160413 -95.31265835 -6.57255394 -77.97705078 -10.85546875 C-77.97705078 -7.40328804 -78.82356648 -5.88419808 -80.41455078 -2.85546875 C-82.63974269 1.40472773 -84.09554328 4.72654573 -84.13526917 9.56742859 C-84.14505798 10.47186707 -84.1548468 11.37630554 -84.16493225 12.30815125 C-84.17068771 13.29789444 -84.17644318 14.28763763 -84.18237305 15.30737305 C-84.19227264 16.35144318 -84.20217224 17.39551331 -84.21237183 18.47122192 C-84.24400663 21.92870807 -84.26875218 25.38620796 -84.29345703 28.84375 C-84.31402484 31.23843242 -84.33502126 33.6331112 -84.35643005 36.02778625 C-84.41166856 42.33571422 -84.46107004 48.64367505 -84.50927734 54.95166016 C-84.55947934 61.38642304 -84.6151722 67.8211381 -84.67041016 74.25585938 C-84.77801351 86.88537556 -84.87964007 99.51493255 -84.97705078 112.14453125 C-88.94638846 110.38088869 -89.93907125 108.8545214 -91.66455078 104.83203125 C-92.08091797 103.88714844 -92.49728516 102.94226563 -92.92626953 101.96875 C-94.94896732 96.53227974 -95.14073228 91.34629177 -95.18237305 85.59057617 C-95.19227264 84.7412854 -95.20217224 83.89199463 -95.21237183 83.01696777 C-95.24386987 80.2196732 -95.26869788 77.42236166 -95.29345703 74.625 C-95.31403666 72.68158028 -95.3350334 70.73816493 -95.35643005 68.79475403 C-95.41154649 63.68697662 -95.46100167 58.57915951 -95.50927734 53.47131348 C-95.55956861 48.25623046 -95.61521484 43.04120489 -95.67041016 37.82617188 C-95.77786414 27.59900744 -95.87933733 17.37179306 -95.97705078 7.14453125 C-97.75022074 8.2613663 -99.52191135 9.38055032 -101.29296875 10.50073242 C-102.27973602 11.12372726 -103.2665033 11.74672211 -104.28317261 12.38859558 C-109.01474431 15.47274972 -112.96275867 19.19540622 -116.97705078 23.14453125 C-117.75048828 23.90507813 -118.52392578 24.665625 -119.32080078 25.44921875 C-133.80039032 40.57344755 -141.85045688 61.37295619 -142.97705078 82.14453125 C-143.01830078 82.82257813 -143.05955078 83.500625 -143.10205078 84.19921875 C-143.83305889 108.41386233 -135.20152159 131.3033872 -118.97705078 149.14453125 C-118.37634766 149.83804688 -117.77564453 150.5315625 -117.15673828 151.24609375 C-102.14847141 167.55377767 -79.67141542 176.45346577 -57.83251953 177.52734375 C-45.60835919 177.8672382 -34.58169753 177.10330706 -22.97705078 173.14453125 C-21.83107422 172.77070313 -20.68509766 172.396875 -19.50439453 172.01171875 C-4.46819778 166.70068785 9.18919994 156.70987755 19.02294922 144.14453125 C17.76482422 144.47453125 16.50669922 144.80453125 15.21044922 145.14453125 C3.79397259 147.62792758 -6.90987162 146.16430877 -17.16455078 140.51953125 C-26.35134488 134.5699884 -32.00901553 126.6616842 -34.97705078 116.14453125 C-35.76213111 110.27020131 -35.59592784 104.30854666 -35.53955078 98.39453125 C-35.02408754 85.10650549 -35.02408754 85.10650549 -39.97705078 73.14453125 C-44.15593974 69.55432496 -48.21657283 68.48053238 -53.69970703 68.76171875 C-57.60752142 69.41860693 -60.82111597 70.73859506 -63.97705078 73.14453125 C-68.36265801 79.65220649 -68.14718063 87.12078793 -68.29345703 94.69921875 C-68.32462868 96.05154099 -68.32462868 96.05154099 -68.35643005 97.43118286 C-68.42149658 100.29389265 -68.48060992 103.15668944 -68.53955078 106.01953125 C-68.58277685 107.96745669 -68.62639242 109.91537354 -68.67041016 111.86328125 C-68.77713367 116.62361014 -68.87852043 121.38402601 -68.97705078 126.14453125 C-72.38017817 125.08578051 -74.99058309 124.13550971 -77.97705078 122.14453125 C-78.37145996 120.30090332 -78.37145996 120.30090332 -78.39697266 118.03710938 C-78.42084045 116.76438171 -78.42084045 116.76438171 -78.44519043 115.46594238 C-78.44539185 114.54518921 -78.44559326 113.62443604 -78.44580078 112.67578125 C-78.45722107 111.25066223 -78.45722107 111.25066223 -78.46887207 109.79675293 C-78.47969713 107.77924223 -78.48251645 105.76167537 -78.47802734 103.74414062 C-78.47706319 100.68391458 -78.51848485 97.62626458 -78.56298828 94.56640625 C-78.56820171 92.60286978 -78.57088337 90.63932464 -78.57080078 88.67578125 C-78.58719604 87.77122192 -78.60359131 86.8666626 -78.6204834 85.93469238 C-78.53848639 78.23584788 -76.22473537 71.79887594 -71.06433105 65.99230957 C-65.81793997 60.89441112 -60.34780744 58.27732835 -53.02001953 58.0546875 C-44.23254819 58.485771 -38.19362548 60.47577595 -32.16455078 66.95703125 C-25.04638254 75.77772264 -24.90444153 84.86486558 -25.01635742 95.73339844 C-25.4010034 113.30027 -25.4010034 113.30027 -16.97705078 128.14453125 C-7.90845326 134.82962491 -0.00490317 135.92129466 11.02294922 135.14453125 C19.39527878 133.34899489 25.95722063 129.83371894 30.67529297 122.6171875 C40.76429086 104.23991751 40.51360365 80.0065577 35.02294922 60.14453125 C27.99796145 37.27234192 12.3001573 18.17103076 -8.81079102 6.87817383 C-21.37762968 0.4376878 -34.26815244 -3.00206103 -48.41455078 -3.16796875 C-49.23503906 -3.19697266 -50.05552734 -3.22597656 -50.90087891 -3.25585938 C-56.77555456 -3.31680972 -60.29928226 -2.51607395 -64.97705078 1.14453125 C-67.84274877 6.49686664 -68.43911743 10.91381437 -68.48876953 16.921875 C-68.51569633 18.13889854 -68.51569633 18.13889854 -68.54316711 19.38050842 C-68.59693541 21.94763133 -68.63105694 24.51457195 -68.66455078 27.08203125 C-68.69775354 28.83270748 -68.73224591 30.58335975 -68.76806641 32.33398438 C-68.85264204 36.60403439 -68.91961152 40.8740335 -68.97705078 45.14453125 C-68.44727127 44.93299911 -67.91749176 44.72146698 -67.37165833 44.50352478 C-66.66627426 44.22899979 -65.9608902 43.95447479 -65.23413086 43.67163086 C-64.53935135 43.39822372 -63.84457184 43.12481659 -63.1287384 42.84312439 C-59.64959142 41.71354211 -56.29603259 41.65441318 -52.66455078 41.70703125 C-51.55370117 41.71839111 -51.55370117 41.71839111 -50.42041016 41.72998047 C-37.95431878 42.10157632 -27.15231237 48.07161154 -18.60986328 57.03125 C-11.80618648 65.83696566 -8.7719709 75.97801322 -8.66845703 86.96875 C-8.64332434 88.4238326 -8.61792597 89.87891064 -8.59228516 91.33398438 C-8.56347368 93.59186873 -8.53940503 95.84967451 -8.52075195 98.10766602 C-8.49906164 100.31173595 -8.45966076 102.51497096 -8.41845703 104.71875 C-8.39827515 106.67687622 -8.39827515 106.67687622 -8.37768555 108.67456055 C-7.95563259 112.33003811 -7.18898867 114.23889069 -4.97705078 117.14453125 C-1.83833891 118.71388719 0.56150744 118.49654228 4.02294922 118.14453125 C9.3243578 114.81573982 10.60872714 109.72431077 12.23388672 103.87109375 C16.25719554 84.8699224 13.22727758 66.01509893 2.73779297 49.546875 C-6.00747758 37.29552787 -16.76995237 29.08787808 -30.97705078 24.14453125 C-31.65123047 23.90992188 -32.32541016 23.6753125 -33.02001953 23.43359375 C-42.21856826 20.72698453 -52.4654114 20.98053747 -61.97705078 21.14453125 C-62.03128716 19.22817908 -62.06995041 17.311382 -62.10205078 15.39453125 C-62.12525391 14.3271875 -62.14845703 13.25984375 -62.17236328 12.16015625 C-61.97827536 9.16343871 -61.6493798 7.60318716 -59.97705078 5.14453125 C-53.51848318 0.83881952 -42.28092541 2.49131436 -34.79345703 3.76171875 C-13.02359015 8.26121692 6.44384721 21.76656403 18.84838867 40.07397461 C31.7019894 59.81048955 35.50159978 83.58194799 30.83544922 106.64453125 C28.57511615 114.62467429 24.32023748 121.69838328 17.24560547 126.30078125 C10.56576387 130.0044558 4.3244224 130.97240624 -3.10205078 129.08203125 C-9.33540818 126.94931177 -13.46946173 123.65717967 -16.85205078 118.01953125 C-18.75976166 113.14427011 -19.10737879 109.1547165 -19.15283203 103.88671875 C-19.17604959 102.441392 -19.20016769 100.99607948 -19.22509766 99.55078125 C-19.26000619 97.29319984 -19.28945129 95.03613712 -19.30297852 92.77832031 C-19.38472529 81.34383333 -20.45670196 71.3360687 -27.97705078 62.14453125 C-35.44407623 55.36087197 -43.8342397 51.92498988 -53.97705078 52.14453125 C-62.2657935 53.2605319 -68.37970614 56.11598193 -74.97705078 61.14453125 C-75.96705078 61.80453125 -76.95705078 62.46453125 -77.97705078 63.14453125 C-78.09352163 55.75515566 -78.18205505 48.36598186 -78.23611164 40.97587013 C-78.2620724 37.54331383 -78.29721612 34.11139103 -78.35424805 30.67919922 C-78.41957652 26.72241112 -78.44334317 22.76586866 -78.46533203 18.80859375 C-78.49113846 17.5915274 -78.51694489 16.37446106 -78.54353333 15.12051392 C-78.5464358 6.20186494 -76.70372624 -0.37484161 -70.94970703 -7.29296875 C-70.31935547 -7.80859375 -69.68900391 -8.32421875 -69.03955078 -8.85546875 C-68.41177734 -9.39171875 -67.78400391 -9.92796875 -67.13720703 -10.48046875 C-48.62576988 -22.26351735 -16.6513445 -9.70457622 0 0 Z " fill="#F9FAFA" transform="translate(253.97705078125,87.85546875)"/>
<path d="M0 0 C0.17577261 3.8327443 0.28134097 7.66443993 0.375 11.5 C0.42527344 12.57765625 0.47554687 13.6553125 0.52734375 14.765625 C0.67120226 22.62989028 -0.89358743 26.19963905 -6 32 C-15.12659758 48.30459698 -17.90947958 67.14501362 -13.9375 85.5 C-8.06442248 104.48506453 3.49224804 118.02051201 20.9375 127.3125 C36.06963638 134.38701472 54.54763758 135.71409172 70.65234375 130.87109375 C72.8104014 130.07035023 74.90387194 129.1996029 77 128.25 C80 127 80 127 82 127.125 C83.71705259 127.87621051 85.42231661 128.65426564 87.125 129.4375 C91.57257461 131.41419983 96.22617308 132.18355073 101 133 C98.67036268 139.24009996 91.71519214 142.24330775 86 145 C64.92191965 153.58653486 40.39463708 156.05358701 18.96337891 147.15429688 C-2.90272519 137.57611968 -20.18697391 121.8112181 -29.375 99.625 C-37.55641541 78.47157234 -37.10335046 54.83840423 -28.37890625 33.92578125 C-23.23477864 23.01090426 -16.12189393 13.97741807 -7.6875 5.4375 C-7.15946777 4.90012207 -6.63143555 4.36274414 -6.08740234 3.80908203 C-2.24609248 0 -2.24609248 0 0 0 Z " fill="#F5F5F4" transform="translate(152,107)"/>
<path d="M0 0 C0.99 0 1.98 0 3 0 C2.98428955 0.95664551 2.9685791 1.91329102 2.95239258 2.89892578 C2.8972459 6.51830298 2.86334897 10.13764487 2.83520508 13.75732422 C2.82030811 15.31077358 2.79998349 16.86418235 2.77368164 18.41748047 C2.47587135 36.48463786 4.68143688 52.12336094 17.6171875 65.7421875 C28.06556623 75.64245456 40.57187294 79.23581732 54.703125 79.171875 C58.34953268 78.98177792 61.61218803 78.28762441 65.13671875 77.3984375 C67.79512554 76.82997316 69.49654346 76.92709005 72 78 C76 82.21621622 76 82.21621622 76 85 C59.50847947 90.80307187 43.28229888 92.01303594 27.01171875 84.60546875 C11.22789406 76.19152329 -0.28075726 64.26940393 -5.64257812 46.92089844 C-9.89591951 30.56486748 -7.5231089 15.0462178 0 0 Z " fill="#F7F8F7" transform="translate(150,145)"/>
<path d="M0 0 C15.05041068 5.7797529 27.62157322 16.35153558 34.4609375 31.1640625 C41.10259908 47.55706537 41.10662987 61.28231024 36 78 C34.8671875 80.47265625 34.8671875 80.47265625 34 82 C32.68 81.67 31.36 81.34 30 81 C29.98541748 80.15928955 29.97083496 79.3185791 29.95581055 78.45239258 C29.89394852 75.26682586 29.8196604 72.08183281 29.73754883 68.89672852 C29.70474441 67.5306246 29.67658181 66.16439956 29.65356445 64.7980957 C29.37792193 48.85188272 26.98461815 33.78073961 15.81640625 21.62109375 C5.05564731 12.01740566 -7.24716155 8.11467888 -21.3125 7.4375 C-22.14845703 7.39431641 -22.98441406 7.35113281 -23.84570312 7.30664062 C-25.89696935 7.20114693 -27.9484648 7.10012685 -30 7 C-30 4.03 -30 1.06 -30 -2 C-21.79317916 -6.10341042 -8.30756873 -2.58108204 0 0 Z " fill="#F6F7F6" transform="translate(222,118)"/>
<path d="M0 0 C3.44312714 2.1244827 4.71617547 3.14852641 6 7 C6.11713734 9.3614235 6.17876072 11.72573572 6.2109375 14.08984375 C6.23904956 15.5293074 6.26771419 16.96876034 6.296875 18.40820312 C6.33775744 20.6589273 6.37466741 22.90946109 6.40136719 25.16040039 C6.52174098 34.51531207 7.17606098 42.98361271 10 52 C2.21671136 55.59228706 -5.67204329 56.21871351 -14 54 C-14.07612856 47.39810582 -14.12863283 40.79632506 -14.16479492 34.1940918 C-14.17987182 31.94860606 -14.20033653 29.70314971 -14.22631836 27.45776367 C-14.26274918 24.22827901 -14.27973755 20.99918406 -14.29296875 17.76953125 C-14.30845261 16.76727005 -14.32393646 15.76500885 -14.33988953 14.7323761 C-14.34201533 5.90806093 -14.34201533 5.90806093 -11 2 C-7.31106884 -0.45928744 -4.28358579 -0.69305579 0 0 Z " fill="#F4F5F4" transform="translate(206,163)"/>
<path d="M0 0 C2.64 0 5.28 0 8 0 C9.99616554 1.99616554 9.40983427 5.81701963 9.5625 8.5625 C9.60568359 9.27341797 9.64886719 9.98433594 9.69335938 10.71679688 C9.79971777 12.47761912 9.90038846 14.2387832 10 16 C10.91652344 15.51273437 11.83304688 15.02546875 12.77734375 14.5234375 C16.55519789 12.73754281 18.8642885 12.54883147 23 13 C26.71090481 14.68677491 29.00273108 16.45484767 31 20 C31.54667222 23.21954715 31.64968535 26.4272738 31.75 29.6875 C31.79253906 30.54794922 31.83507812 31.40839844 31.87890625 32.29492188 C32.11019837 37.97871153 31.75392208 43.36271901 31 49 C28.36 49 25.72 49 23 49 C22.97494385 48.25314941 22.9498877 47.50629883 22.92407227 46.73681641 C22.80831787 43.36602733 22.68549872 39.99553217 22.5625 36.625 C22.52318359 35.449375 22.48386719 34.27375 22.44335938 33.0625 C22.40146484 31.94101562 22.35957031 30.81953125 22.31640625 29.6640625 C22.27974854 28.62717285 22.24309082 27.5902832 22.20532227 26.52197266 C22.15835777 24.00574834 22.15835777 24.00574834 21 22 C16.18496035 21.5889024 16.18496035 21.5889024 11.80859375 23.31640625 C8.91266047 27.6133958 9.36094653 32.11999245 9.3125 37.1875 C9.2706126 39.20190293 9.22523484 41.21623737 9.17578125 43.23046875 C9.16458252 44.12145264 9.15338379 45.01243652 9.1418457 45.93041992 C9 48 9 48 8 49 C5.36 49 2.72 49 0 49 C0 32.83 0 16.66 0 0 Z " fill="#FAFBFB" transform="translate(88,283)"/>
<path d="M0 0 C4.29519454 3.8861284 6.31069564 6.80283573 7.0078125 12.5078125 C7.1788452 17.51336945 7.12631715 21.29523999 5 25.875 C4.21625 26.7 3.4325 27.525 2.625 28.375 C1.75875 29.303125 0.8925 30.23125 0 31.1875 C-3.99356313 34.3115785 -8.43361338 34.6263901 -13.375 34.375 C-19.43350255 32.75939932 -22.93357064 29.4563051 -26.375 24.375 C-28.16505211 19.00484366 -28.37959071 12.61265234 -26.69140625 7.171875 C-24.23648694 2.48613689 -20.51273483 -0.60295774 -15.4921875 -2.23828125 C-10.11831731 -3.21985533 -4.8728995 -2.34621087 0 0 Z M-16.8125 7.1875 C-19.65031443 11.1604402 -19.70394576 14.60528649 -19.375 19.375 C-17.97039303 22.24805972 -16.62989001 24.12010999 -14.375 26.375 C-11.28962503 26.77963934 -9.33569205 27.00902966 -6.375 26.375 C-3.29496574 23.80830478 -1.76077487 22.27790871 -0.96875 18.37109375 C-0.76441957 13.88433804 -1.67632559 10.90403576 -4.375 7.375 C-6.36459408 4.96160109 -6.36459408 4.96160109 -10.25 5 C-13.39022643 5.07408883 -14.19336528 5.23993829 -16.8125 7.1875 Z " fill="#FAFBFA" transform="translate(309.375,298.625)"/>
<path d="M0 0 C2.64233769 2.19257809 4.46669809 3.93339618 6 7 C6.08543895 9.10528933 6.10714725 11.21331157 6.09765625 13.3203125 C6.09443359 14.57714844 6.09121094 15.83398438 6.08789062 17.12890625 C6.07951172 18.44761719 6.07113281 19.76632812 6.0625 21.125 C6.05748489 22.46484211 6.05292201 23.804686 6.04882812 25.14453125 C6.03701086 28.42973206 6.02053617 31.71484397 6 35 C3.36 35 0.72 35 -2 35 C-2.01981934 34.2886792 -2.03963867 33.5773584 -2.06005859 32.84448242 C-2.15524867 29.62511184 -2.26495229 26.4063955 -2.375 23.1875 C-2.4059375 22.06794922 -2.436875 20.94839844 -2.46875 19.79492188 C-2.50742187 18.72177734 -2.54609375 17.64863281 -2.5859375 16.54296875 C-2.63306885 15.0583313 -2.63306885 15.0583313 -2.68115234 13.54370117 C-2.83773433 10.75924906 -2.83773433 10.75924906 -5 8 C-7.9149255 7.4161804 -7.9149255 7.4161804 -11 8 C-13.62468037 10.05435598 -14.84495644 11.2713785 -15.54589844 14.56542969 C-15.5668457 15.50805664 -15.58779297 16.45068359 -15.609375 17.421875 C-15.64160156 18.44667969 -15.67382812 19.47148437 -15.70703125 20.52734375 C-15.72830078 22.12255859 -15.72830078 22.12255859 -15.75 23.75 C-15.77964844 24.82894531 -15.80929688 25.90789062 -15.83984375 27.01953125 C-15.91046936 29.67976244 -15.96320196 32.33912102 -16 35 C-18.97 35 -21.94 35 -25 35 C-25.0246519 30.17619198 -25.04283693 25.35242033 -25.05493164 20.52856445 C-25.05997174 18.88630536 -25.06680378 17.24405077 -25.07543945 15.60180664 C-25.08751926 13.24624521 -25.09323139 10.89074291 -25.09765625 8.53515625 C-25.10281754 7.79660904 -25.10797882 7.05806183 -25.11329651 6.2971344 C-25.1134925 4.53101912 -25.06194719 2.76502854 -25 1 C-24 0 -24 0 -20.4375 -0.0625 C-19.303125 -0.041875 -18.16875 -0.02125 -17 0 C-16.67 0.66 -16.34 1.32 -16 2 C-14.845 1.484375 -13.69 0.96875 -12.5 0.4375 C-7.80209149 -1.30031041 -4.86001363 -1.27475767 0 0 Z " fill="#FBFCFC" transform="translate(270,297)"/>
<path d="M0 0 C2.64 0 5.28 0 8 0 C8.02505615 0.74685059 8.0501123 1.49370117 8.07592773 2.26318359 C8.19168213 5.63397267 8.31450128 9.00446783 8.4375 12.375 C8.47681641 13.550625 8.51613281 14.72625 8.55664062 15.9375 C8.61948242 17.61972656 8.61948242 17.61972656 8.68359375 19.3359375 C8.73858032 20.89127197 8.73858032 20.89127197 8.79467773 22.47802734 C8.84164223 24.99425166 8.84164223 24.99425166 10 27 C14.94092064 27.48029068 14.94092064 27.48029068 19.19628906 25.32324219 C21.36793646 22.5260851 21.53145517 21.08451733 21.609375 17.578125 C21.64160156 16.55332031 21.67382812 15.52851563 21.70703125 14.47265625 C21.72121094 13.40917969 21.73539063 12.34570312 21.75 11.25 C21.77964844 10.17105469 21.80929688 9.09210938 21.83984375 7.98046875 C21.91046936 5.32023756 21.96320196 2.66087898 22 0 C24.64 0 27.28 0 30 0 C30.02505615 0.81267334 30.0501123 1.62534668 30.07592773 2.46264648 C30.19149118 6.12110752 30.31439584 9.77928528 30.4375 13.4375 C30.47681641 14.71689453 30.51613281 15.99628906 30.55664062 17.31445312 C30.59853516 18.52939453 30.64042969 19.74433594 30.68359375 20.99609375 C30.72025146 22.12200928 30.75690918 23.2479248 30.79467773 24.40795898 C30.71218045 26.92853441 30.71218045 26.92853441 32 28 C32.04092937 30.33297433 32.04241723 32.66705225 32 35 C29.8125 35.75 29.8125 35.75 27 36 C24.1875 34.0625 24.1875 34.0625 22 32 C21.52691406 32.30035156 21.05382812 32.60070312 20.56640625 32.91015625 C15.82942071 35.63415378 12.40980571 36.53389821 6.984375 35.6171875 C4.13311953 34.7303797 2.70687406 33.41807158 1 31 C-2.28650196 21.14049413 -0.83973499 10.18017186 0 0 Z " fill="#FBFCFB" transform="translate(207,297)"/>
<path d="M0 0 C-0.875 4.75 -0.875 4.75 -2 7 C-2.598125 6.690625 -3.19625 6.38125 -3.8125 6.0625 C-8.02389608 4.01696476 -11.3622818 3.91249588 -16 4 C-16.33 5.32 -16.66 6.64 -17 8 C-15.96359375 8.36351562 -14.9271875 8.72703125 -13.859375 9.1015625 C-12.48919993 9.60833958 -11.119429 10.1162103 -9.75 10.625 C-8.72712891 10.97884766 -8.72712891 10.97884766 -7.68359375 11.33984375 C-2.78169001 13.19590439 -0.46361972 15.16775874 2 20 C2.08312839 24.07329096 1.33455326 25.59110157 -1.25 28.75 C-6.05442215 32.68089085 -9.80140298 33.60969807 -16 33 C-19.50156032 31.99362563 -22.89574206 30.92678079 -26 29 C-26.9140625 27.046875 -26.9140625 27.046875 -27 25 C-26.01 23.515 -26.01 23.515 -25 22 C-24.45472656 22.2165625 -23.90945312 22.433125 -23.34765625 22.65625 C-17.6405803 24.76347804 -13.0737233 25.28922492 -7 25 C-7 23.35 -7 21.7 -7 20 C-7.79664063 19.82984375 -8.59328125 19.6596875 -9.4140625 19.484375 C-15.38986659 18.11764608 -20.26079204 16.97068775 -25 13 C-26.53214888 9.93570224 -26.22938548 7.3834358 -26 4 C-24.5784439 0.32067832 -23.31751609 -0.80560239 -19.9375 -2.875 C-13.16512328 -5.40029302 -6.00839886 -3.63666247 0 0 Z " fill="#FAFBFA" transform="translate(168,300)"/>
<path d="M0 0 C-0.3125 2.375 -0.3125 2.375 -1 5 C-1.99 5.66 -2.98 6.32 -4 7 C-4.639375 6.505 -5.27875 6.01 -5.9375 5.5 C-10.04023483 3.49049723 -13.51443582 3.73614328 -18 4 C-18 5.65 -18 7.3 -18 9 C-17.19175781 9.18175781 -16.38351563 9.36351562 -15.55078125 9.55078125 C-14.48214844 9.80214844 -13.41351563 10.05351562 -12.3125 10.3125 C-11.25675781 10.55613281 -10.20101562 10.79976563 -9.11328125 11.05078125 C-4.44700882 12.47349668 -1.72341711 13.91487433 1 18 C1.78651685 24.96629213 1.78651685 24.96629213 -1.1875 28.875 C-6.14116924 32.61777232 -9.77904236 33.51841314 -16 33 C-20.35020188 32.0067039 -23.95389106 31.10950948 -27.0625 27.8125 C-27.371875 27.214375 -27.68125 26.61625 -28 26 C-27.01 24.68 -26.02 23.36 -25 22 C-24.45472656 22.2165625 -23.90945312 22.433125 -23.34765625 22.65625 C-17.6405803 24.76347804 -13.0737233 25.28922492 -7 25 C-7.57549546 22.51252104 -7.57549546 22.51252104 -9 20 C-11.67377817 18.70924492 -11.67377817 18.70924492 -14.8125 18 C-23.15066225 15.47753075 -23.15066225 15.47753075 -26 11 C-26.68101395 8.16051809 -26.71724306 5.83454458 -26 3 C-19.21099143 -5.92269698 -9.10412351 -5.51039055 0 0 Z " fill="#FBFBFA" transform="translate(200,300)"/>
<path d="M0 0 C1.134375 0.020625 2.26875 0.04125 3.4375 0.0625 C4.76307818 2.71365635 4.56707777 4.73320523 4.5703125 7.69921875 C4.57160156 8.83423828 4.57289063 9.96925781 4.57421875 11.13867188 C4.57035156 12.33041016 4.56648437 13.52214844 4.5625 14.75 C4.56636719 15.92240234 4.57023438 17.09480469 4.57421875 18.30273438 C4.56779489 23.99106649 4.47054453 29.46274275 3.4375 35.0625 C0.7975 35.0625 -1.8425 35.0625 -4.5625 35.0625 C-4.5871519 30.23869198 -4.60533693 25.41492033 -4.61743164 20.59106445 C-4.62247174 18.94880536 -4.62930378 17.30655077 -4.63793945 15.66430664 C-4.65001926 13.30874521 -4.65573139 10.95324291 -4.66015625 8.59765625 C-4.66531754 7.85910904 -4.67047882 7.12056183 -4.67579651 6.3596344 C-4.6759925 4.59351912 -4.62444719 2.82752854 -4.5625 1.0625 C-3.5625 0.0625 -3.5625 0.0625 0 0 Z " fill="#FAFBFB" transform="translate(131.5625,296.9375)"/>
<path d="M0 0 C0.84454356 3.37817425 1.10844919 5.67465243 0 9 C-2.64 9 -5.28 9 -8 9 C-8 6.03 -8 3.06 -8 0 C-5.13822943 -1.43088528 -3.06624227 -0.59991697 0 0 Z " fill="#F9FAFA" transform="translate(135,284)"/>
<path d="M0 0 C0.99 0 1.98 0 3 0 C3.33 0.66 3.66 1.32 4 2 C4.99 2.33 5.98 2.66 7 3 C6.34 3.61875 5.68 4.2375 5 4.875 C2.7715451 6.75637427 2.7715451 6.75637427 3 9 C0.69 9.33 -1.62 9.66 -4 10 C-4.99 8.02 -5.98 6.04 -7 4 C-5.68 3.34 -4.36 2.68 -3 2 C-2.67 2.33 -2.34 2.66 -2 3 C-1.34 2.01 -0.68 1.02 0 0 Z " fill="#F1F3F0" transform="translate(266,242)"/>
<path d="M0 0 C3.125 0.125 3.125 0.125 6.125 1.125 C7.09391192 6.49805699 7.09391192 6.49805699 7.125 9.125 C5.6875 11.125 5.6875 11.125 4.125 12.125 C3.465 11.135 2.805 10.145 2.125 9.125 C0.06574861 8.40117533 0.06574861 8.40117533 -1.875 8.125 C-0.885 7.465 0.105 6.805 1.125 6.125 C0.465 5.465 -0.195 4.805 -0.875 4.125 C-1.875 3.125 -2.875 2.125 -3.875 1.125 C-2.875 0.125 -2.875 0.125 0 0 Z " fill="#F0F0F0" transform="translate(154.875,201.875)"/>
<path d="M0 0 C0.99 0.33 1.98 0.66 3 1 C4 4 4 4 3.0625 6.1875 C2.5365625 7.0846875 2.5365625 7.0846875 2 8 C0.02 8 -1.96 8 -4 8 C-4.625 6.1875 -4.625 6.1875 -5 4 C-4.34 3.01 -3.68 2.02 -3 1 C-2.01 1 -1.02 1 0 1 C0 0.67 0 0.34 0 0 Z " fill="#EAEAE8" transform="translate(189,241)"/>
<path d="M0 0 C3 0 3 0 6 1 C4.9802693 4.77300358 4.34127338 5.80206144 0.875 7.8125 C-0.07375 8.204375 -1.0225 8.59625 -2 9 C-2.66 7.02 -3.32 5.04 -4 3 C-3.01 2.67 -2.02 2.34 -1 2 C-0.67 1.34 -0.34 0.68 0 0 Z " fill="#F3F3F3" transform="translate(283,224)"/>
<path d="M0 0 C0.66 0 1.32 0 2 0 C2.86375896 1.61992165 3.71575854 3.24611861 4.5625 4.875 C5.03816406 5.77992188 5.51382812 6.68484375 6.00390625 7.6171875 C6.33261719 8.40351563 6.66132813 9.18984375 7 10 C6.67 10.66 6.34 11.32 6 12 C4.02 11.34 2.04 10.68 0 10 C0.20625 9.2575 0.4125 8.515 0.625 7.75 C1.04408751 4.67669159 0.61949011 3.57213134 -1 1 C-0.67 0.67 -0.34 0.34 0 0 Z " fill="#F4F5F6" transform="translate(274,133)"/>
<path d="M0 0 C-0.33 1.65 -0.66 3.3 -1 5 C-1.66 5 -2.32 5 -3 5 C-3.33 5.66 -3.66 6.32 -4 7 C-6.5625 7.625 -6.5625 7.625 -9 8 C-8.875 6.25 -8.875 6.25 -8 4 C-2.77777778 0 -2.77777778 0 0 0 Z " fill="#EDEDEE" transform="translate(273,207)"/>
<path d="M0 0 C2.1875 -0.3125 2.1875 -0.3125 5 0 C7.8125 2.5 7.8125 2.5 10 5 C9.67 5.99 9.34 6.98 9 8 C7.29159719 6.36587557 6.06546953 5.13093906 5 3 C2.47266765 2.34444881 2.47266765 2.34444881 0 2 C0 1.34 0 0.68 0 0 Z " fill="#F1F2F2" transform="translate(257,115)"/>
<path d="M0 0 C0.66 0.33 1.32 0.66 2 1 C1.67 1.99 1.34 2.98 1 4 C1 4.33 1 4.66 1 5 C0.01 5.66 -0.98 6.32 -2 7 C-2.66 6.67 -3.32 6.34 -4 6 C-2.25 1.125 -2.25 1.125 0 0 Z " fill="#FAFBFA" transform="translate(197,164)"/>
<path d="M0 0 C0 0.66 0 1.32 0 2 C-2.64 2.33 -5.28 2.66 -8 3 C-8.33 2.01 -8.66 1.02 -9 0 C-3.375 -1.125 -3.375 -1.125 0 0 Z " fill="#EEF0ED" transform="translate(244,101)"/>
<path d="M0 0 C1.65 0.33 3.3 0.66 5 1 C5.33 2.32 5.66 3.64 6 5 C3.69 4.34 1.38 3.68 -1 3 C-0.67 2.01 -0.34 1.02 0 0 Z " fill="#EEF0EF" transform="translate(275,140)"/>
<path d="" fill="#FFFFFF" transform="translate(0,0)"/>
</svg>
