<svg xmlns="http://www.w3.org/2000/svg" viewBox="0 0 64 64" width="64" height="64">
  <path d="M56.1 0H7.9C3.5 0 0 3.5 0 7.9v48.2c0 4.4 3.5 7.9 7.9 7.9h48.2c4.4 0 7.9-3.5 7.9-7.9V7.9C64 3.5 60.5 0 56.1 0zM40.5 11.7c0-1.2.9-2.1 2.1-2.1s2.1.9 2.1 2.1v28.5c0 1.2-.9 2.1-2.1 2.1s-2.1-.9-2.1-2.1V11.7zm-10.7-1.1c0-1.2.9-2.1 2.1-2.1s2.1.9 2.1 2.1v30.9c0 1.2-.9 2.1-2.1 2.1s-2.1-.9-2.1-2.1V10.6zm-10.7 1.1c0-1.2.9-2.1 2.1-2.1s2.1.9 2.1 2.1v28.5c0 1.2-.9 2.1-2.1 2.1s-2.1-.9-2.1-2.1V11.7zm-10.7 4.3c0-1.2.9-2.1 2.1-2.1s2.1.9 2.1 2.1v19.2c0 1.2-.9 2.1-2.1 2.1s-2.1-.9-2.1-2.1V16zm46.3 32.6c-.4.3-8.2 6.9-22.8 6.9s-22.4-6.6-22.8-6.9c-.9-.7-1.1-2.1-.3-3s2.1-1.1 3-.3c.1.1 7.2 5.8 20.1 5.8 13 0 20.1-5.8 20.1-5.9.9-.7 2.3-.6 3 .3.8 1 .7 2.4-.3 3.1zm.7-13.4c0 1.2-.9 2.1-2.1 2.1s-2.1-.9-2.1-2.1V16c0-1.2.9-2.1 2.1-2.1s2.1.9 2.1 2.1v19.2z" fill="#1f8ded"/>
</svg>
