<svg xmlns="http://www.w3.org/2000/svg" width="64" height="64" viewBox="0 0 64 64">
  <path d="M17.78 40.31c0-3.73 2.82-6.73 6.32-6.73s6.32 3 6.32 6.73v16.56c0 3.73-2.82 6.73-6.32 6.73s-6.32-3-6.32-6.73z" fill="#e01e5a"/>
  <path d="M40.31 46.22c-3.73 0-6.73-2.82-6.73-6.32s3-6.32 6.73-6.32h16.56c3.73 0 6.73 2.82 6.73 6.32s-3 6.32-6.73 6.32z" fill="#ecb22d"/>
  <path d="M33.58 7.12c0-3.73 2.82-6.73 6.32-6.73s6.32 3 6.32 6.73v16.57c0 3.73-2.82 6.73-6.32 6.73s-6.32-3-6.32-6.73z" fill="#2fb67c"/>
  <path d="M7.12 30.42c-3.73 0-6.73-2.82-6.73-6.32s3-6.32 6.73-6.32h16.57c3.73 0 6.73 2.82 6.73 6.32s-3 6.32-6.73 6.32z" fill="#36c5f1"/>
  <path d="M24.1 33.58c3.73 0 6.73 2.82 6.73 6.32v6.32c0 3.5-3 6.32-6.73 6.32s-6.73-2.82-6.73-6.32V39.9c0-3.5 3-6.32 6.73-6.32z" fill="#e01e5a"/>
  <path d="M33.58 39.9c0-3.5 3-6.32 6.73-6.32h6.32c3.5 0 6.32 2.82 6.32 6.32s-2.82 6.32-6.32 6.32h-6.32c-3.73 0-6.73-2.82-6.73-6.32z" fill="#ecb22d"/>
  <path d="M39.9 30.42c-3.5 0-6.32-2.82-6.32-6.32v-6.32c0-3.5 2.82-6.32 6.32-6.32s6.32 2.82 6.32 6.32v6.32c0 3.5-2.82 6.32-6.32 6.32z" fill="#2fb67c"/>
  <path d="M30.42 24.1c0 3.5-2.82 6.32-6.32 6.32h-6.32c-3.5 0-6.32-2.82-6.32-6.32s2.82-6.32 6.32-6.32h6.32c3.5 0 6.32 2.82 6.32 6.32z" fill="#36c5f1"/>
</svg>
